<svg width="21" height="20" viewBox="0 0 21 20" fill="none" xmlns="http://www.w3.org/2000/svg">
<path fill-rule="evenodd" clip-rule="evenodd" d="M10.5 0C4.977 0 0.5 4.477 0.5 10C0.5 15.523 4.977 20 10.5 20C16.023 20 20.5 15.523 20.5 10C20.5 4.477 16.023 0 10.5 0ZM16.207 7.707L9.20702 14.707C9.01202 14.902 8.75602 15 8.50002 15C8.24402 15 7.98802 14.902 7.79302 14.707L4.79302 11.707C4.40202 11.316 4.40202 10.684 4.79302 10.293C5.18402 9.902 5.81602 9.902 6.20702 10.293L8.50002 12.586L14.793 6.293C15.184 5.902 15.816 5.902 16.207 6.293C16.598 6.684 16.598 7.316 16.207 7.707Z" fill="#51BAF7"/>
</svg>
