<svg width="279" height="214" fill="none" xmlns="http://www.w3.org/2000/svg"><path fill-rule="evenodd" clip-rule="evenodd" d="M162.5 213.195c63.735 6.954 116.5-31.645 116.5-95.714S233.401-10.583 163.096 1.474C92.792 13.53 37.064 50.124 47.193 117.48c10.13 67.358 51.572 88.76 115.307 95.714z" fill="#EFF9FF"/><path fill-rule="evenodd" clip-rule="evenodd" d="M43.668 169.908v6.295c.906-2.255 3.476-6.301 10.332-6.727 0 0-2.363 8.748-10.332 8.265v.821c-.014.275-.125.333-.227.386l-.013.007c-.273.142-.654-.07-.67-.393v-1.921c-2.128-.385-7.35-2.068-8.758-9.354 0 0 6.348.844 8.758 5.63v-3.106c-1.185-1.623-3.913-6.521.467-12.811 0 0 5.5 7.078.443 12.908zM27.902 150.239l-2.309 5.89c1.653-1.784 5.48-4.642 11.89-2.566 0 0-5.364 7.333-12.454 4.005l-.3.769c-.115.252-.238.266-.35.279l-.015.002c-.3.035-.57-.301-.467-.61l.705-1.797c-1.8-1.129-5.945-4.588-4.556-11.913 0 0 5.479 3.079 5.922 8.427l1.139-2.906c-.485-1.946-1.177-7.514 5.124-11.819 0 0 2.42 8.608-4.329 12.239z" fill="#2DCCA7"/><path fill-rule="evenodd" clip-rule="evenodd" d="M0 160.993l3.776-8.72 13.357-4.922 12.57 10.425-.463 8.565H2.542L0 160.993z" fill="#CDD7E3"/><path fill-rule="evenodd" clip-rule="evenodd" d="M160.406 142.671c-26.123-24.157-15.937-46.2-15.937-46.2 2.842-10.165 12.175-19.1 19.927-18.564 7.751.535 13.012 8.402 13.012 8.402 12.379 22.237-4.469 54.34-4.469 54.34-6.507 25.93-22.487 27.782-22.487 27.782-4.556-.199-2.563-2.955-2.563-2.955 13.89-7.674 12.517-22.805 12.517-22.805zm-74.757.1c-16.285-20.587-9.316-33.102-9.316-33.102 11.363-9.273 22.423-1.936 26.838 12.829 4.101 24.63-6.106 40.292-11.567 44.906-6.152 5.198-12.176 2.998-12.176 2.998-.643-3.943 4.556-5.007 4.556-5.007 3.973-2.583 5.36-6.443 5.633-10.048.377-4.959-3.155-11.548-3.968-12.576z" fill="#3CAAEA"/><path fill-rule="evenodd" clip-rule="evenodd" d="M60.783 124.498S52.076 127.94 47 136.819c0 0 .812 6.619 6.785 10.318 0 0 3.013 1.867 3.808-1.613 0 0 .52-5.055 3.491-6.587 0 0 4.007-9.265-.3-14.439z" fill="#102A43"/><path fill-rule="evenodd" clip-rule="evenodd" d="M55.895 131.926l4.836 11.211-9.453 19.143c7.997 4.842 19.89-5.878 25.085-14.351a162.05 162.05 0 0117.786-12.043c1.451 3.017 3.566 6.323 6.562 9.902 0 0 9.091 11.75-1.382 21.324 0 0-6.186 2.722-3.978 5.288 0 0 9.033 4.799 17.98-10.378 0 0 9.208-16.895 5.657-37.675 13.531-4.753 24.295-6.107 30.122-6.475 3.484 7.56 9.657 16.772 20.427 23.491 0 0 8.464 14.585-6.252 25.215 0 0-.407 4.167 6.239 2.56 5.9-1.426 21.637-24.802 18.551-61.543 0 0-.763-14.342-10.093-24.27 7.631-1.616 11.325 9.86 11.325 9.86 4.373 10.191 11.48 17.226 24.575 14.727 12.908-2.464 10.224-16.32 10.224-16.32-5.512 5.135-12.316 4.074-16.631 2.57a10.865 10.865 0 01-5.8-4.824c-4.688-8.164-8.678-10.375-8.678-10.375-9.169-5.082-16.971-1.813-20.16.027a28.248 28.248 0 00-4.881-2.557l-.028-.036c-82.072-5.88-112.032 55.529-112.032 55.529z" fill="#73C4F3"/><path fill-rule="evenodd" clip-rule="evenodd" d="M79.048 125.274s8.69.019 8.675 13.055c0 0-.847 10.433-9.645 12.712 0 0-7.022 1.787-5.487-3.714 0 0 4.279-7.599-2.65-16.262 0 0 2.959-7.033 9.107-5.791zM105.994 86.37s-2.547 7.76 4.94 8.039c0 0 5.776-4.634 11.631-.74 0 0 6.113 5.23 11.648.432 6.899-5.98 3.406-16.395 3.085-16.741 0 0-11.947 1.078-31.304 9.01z" fill="#102A43"/><path fill-rule="evenodd" clip-rule="evenodd" d="M53.404 157.979l-2.124 4.246s2.817 2.364 4.893-3.078l-2.769-1.168z" fill="#7B8794"/><path fill-rule="evenodd" clip-rule="evenodd" d="M180.7 112.412c1.618-1.534.822-4.826-.038-6.509-1.071-2.096-2.956-4.473-6.025-4.587-1.501-.055-3.286.431-5.397 1.757 0 0-5.874 5.466-1.561 11.35.593.808 3.581 2.435 4.952 3.063 2.103.964 4.62 3.44 3.881 9.799 0 0-2.595 7.113 2.471 9.808 0 0 7.562 1.221 4.917-8.03-1.008-3.525 5.809-8.217-1.319-8.998-2.249-.246-4.857-4.829-1.881-7.653z" fill="#102A43"/><path fill-rule="evenodd" clip-rule="evenodd" d="M239.713 177.72H207.07c-4.588-.37-4.955-5.184-4.955-5.184l-1.653-52.952h45.859l-1.652 52.952s-.367 4.814-4.956 5.184z" fill="#7C99BE"/><path fill-rule="evenodd" clip-rule="evenodd" d="M251.352 119.482a1.153 1.153 0 00-1.041-1.253l-51.839-4.535a1.152 1.152 0 00-1.244 1.052l-.202 2.306a1.153 1.153 0 001.042 1.253l51.839 4.535a1.154 1.154 0 001.244-1.053l.201-2.305z" fill="#5C7594"/><path fill-rule="evenodd" clip-rule="evenodd" d="M249.847 118.617l-50.987-4.461s5.764-3.435 20.263-3.434a6.525 6.525 0 01.018-.837c.29-3.311 3.096-5.774 6.262-5.497 3.167.277 5.502 3.19 5.212 6.501a6.26 6.26 0 01-.127.828c14.268 2.514 19.351 6.893 19.359 6.9zm-22.045-7.335c.058-.201.097-.412.116-.629.154-1.754-1.084-3.298-2.762-3.445-1.677-.146-3.164 1.159-3.318 2.913-.019.217-.016.432.006.64.962.028 1.959.07 2.99.128l.11.013c.986.118 1.939.246 2.858.38z" fill="#95AAC9"/><path fill-rule="evenodd" clip-rule="evenodd" d="M208.93 168.509h-2.204l-1.159-43.161h2.204l1.159 43.161zm6.121 0h-2.203l-.547-43.161h2.202l.548 43.161zm4.134 0h2.203v-43.161h-2.203v43.161zm22.301-43.161l-1.159 43.161h-2.203l1.159-43.161h2.203zm-6.733 0l-.547 43.161h-2.203l.547-43.161h2.203zm-9.087 43.161h2.203v-43.161h-2.203v43.161zM200.462 120.254a.667.667 0 01-.663-.67c0-.369.297-.669.663-.669h45.854c.366 0 .663.3.663.669 0 .37-.297.67-.663.67h-45.854z" fill="#5C7594"/></svg>