<svg width="20" height="20" viewBox="0 0 20 20" fill="none" xmlns="http://www.w3.org/2000/svg">
<path fill-rule="evenodd" clip-rule="evenodd" d="M1.75828 9.53122C3.29516 5.7568 6.46598 3.33331 9.99996 3.33331C13.5339 3.33331 16.7048 5.7568 18.2416 9.53122C18.3638 9.83135 18.3638 10.1686 18.2416 10.4687C16.7048 14.2432 13.5339 16.6666 9.99996 16.6666C6.46598 16.6666 3.29516 14.2432 1.75828 10.4687C1.63607 10.1686 1.63607 9.83135 1.75828 9.53122ZM9.99996 15.1247C12.8492 15.1247 15.4614 13.1556 16.7916 9.99998C15.4614 6.84436 12.8492 4.87527 9.99996 4.87527C7.15075 4.87527 4.5385 6.84436 3.20837 9.99998C4.5385 13.1556 7.15075 15.1247 9.99996 15.1247ZM10 13.0385C8.35102 13.0385 7.01426 11.6781 7.01426 9.99997C7.01426 8.32182 8.35102 6.96142 10 6.96142C11.649 6.96142 12.9857 8.32182 12.9857 9.99997C12.9857 11.6781 11.649 13.0385 10 13.0385ZM9.99995 11.4966C10.8121 11.4966 11.4705 10.8265 11.4705 9.99997C11.4705 9.17342 10.8121 8.50337 9.99995 8.50337C9.18777 8.50337 8.52936 9.17342 8.52936 9.99997C8.52936 10.8265 9.18777 11.4966 9.99995 11.4966Z" fill="#7B8794"/>
</svg>
