<svg width="14" height="14" viewBox="0 0 14 14" fill="none" xmlns="http://www.w3.org/2000/svg">
<path fill-rule="evenodd" clip-rule="evenodd" d="M1.16666 6.99984C1.16666 3.78567 3.78582 1.1665 6.99999 1.1665C10.2142 1.1665 12.8333 3.78567 12.8333 6.99984C12.8333 10.214 10.2142 12.8332 6.99999 12.8332C3.78582 12.8332 1.16666 10.214 1.16666 6.99984ZM2.33332 6.99984C2.33332 9.57234 4.42749 11.6665 6.99999 11.6665C9.57249 11.6665 11.6667 9.57234 11.6667 6.99984C11.6667 4.42734 9.57249 2.33317 6.99999 2.33317C4.42749 2.33317 2.33332 4.42734 2.33332 6.99984ZM6.99999 5.24984C7.32217 5.24984 7.58332 4.98867 7.58332 4.6665C7.58332 4.34434 7.32217 4.08317 6.99999 4.08317C6.67782 4.08317 6.41666 4.34434 6.41666 4.6665C6.41666 4.98867 6.67782 5.24984 6.99999 5.24984ZM6.99999 5.83317C6.67916 5.83317 6.41666 6.09567 6.41666 6.4165V9.33317C6.41666 9.654 6.67916 9.9165 6.99999 9.9165C7.32082 9.9165 7.58332 9.654 7.58332 9.33317V6.4165C7.58332 6.09567 7.32082 5.83317 6.99999 5.83317Z" fill="#7B8794"/>
</svg>
