<svg width="133" height="37" viewBox="0 0 133 37" fill="none" xmlns="http://www.w3.org/2000/svg">
<path d="M23.802 18.6156L19.6435 22.7742L1.02844 4.15848L5.18633 -5.96777e-05L23.802 18.6156Z" fill="#5EB7E7"/>
<path d="M16.6529 25.733L12.4944 29.8909L0 17.3965L4.15854 13.238L16.6529 25.733Z" fill="#5EB7E7"/>
<path d="M9.34089 32.8415L5.183 37L0.0938721 31.9115L4.25241 27.753L9.34089 32.8415Z" fill="#5EB7E7"/>
<path d="M38.4993 31V16.8672H40.7668V14.0547H38.4993C38.5227 12.3555 38.9329 11.0371 39.7297 10.0996C40.5266 9.15039 41.6692 8.63477 43.1575 8.55273V5.74023C40.8958 5.83398 39.0969 6.63086 37.761 8.13086C36.4133 9.63086 35.7219 11.6055 35.6868 14.0547H33.2083V16.8672H35.6868V31H38.4993ZM44.8571 31H47.652V14.0547H44.8571V31ZM46.2458 10.9434C46.6911 10.9434 47.0661 10.7852 47.3708 10.4688C47.6872 10.1641 47.8454 9.78906 47.8454 9.34375C47.8454 8.91016 47.6872 8.53516 47.3708 8.21875C47.0661 7.91406 46.6911 7.76172 46.2458 7.76172C45.8122 7.76172 45.443 7.91406 45.1383 8.21875C44.8219 8.53516 44.6637 8.91016 44.6637 9.34375C44.6637 9.78906 44.8219 10.1641 45.1383 10.4688C45.443 10.7852 45.8122 10.9434 46.2458 10.9434ZM54.959 22.1055C55.0176 20.418 55.4219 19.123 56.1719 18.2207C56.9219 17.3184 57.9766 16.8672 59.336 16.8672C60.7422 16.8672 61.8204 17.3535 62.5704 18.3262C63.3321 19.3105 63.7129 20.7109 63.7129 22.5273V31H66.5079V22.5273C66.5079 20.6992 66.168 19.1113 65.4883 17.7637C64.7969 16.416 63.8301 15.4258 62.5879 14.793C61.6153 14.3125 60.5313 14.0723 59.336 14.0723C58.129 14.0723 57.045 14.3125 56.084 14.793C55.6739 15.0156 55.2989 15.2969 54.959 15.6367V14.0723H52.1465V31H54.959V22.1055ZM72.2504 22.5273C72.2504 20.6992 72.684 19.2988 73.5512 18.3262C74.4301 17.3535 75.6899 16.8672 77.3305 16.8672C78.9711 16.8672 80.225 17.3535 81.0922 18.3262C81.9711 19.2988 82.4106 20.6934 82.4106 22.5098V22.5449C82.4106 24.3613 81.9711 25.7559 81.0922 26.7285C80.225 27.7012 78.9711 28.1875 77.3305 28.1875C75.6899 28.1875 74.4301 27.7012 73.5512 26.7285C72.684 25.7559 72.2504 24.3555 72.2504 22.5273ZM75.5903 30.8418C76.1411 30.9473 76.7211 31 77.3305 31C77.9282 31 78.5024 30.9473 79.0532 30.8418L79.2465 30.8066C80.5473 30.5137 81.602 29.8867 82.4106 28.9258V31H85.2231V14.0723H82.4106V16.1289C81.5903 15.1562 80.518 14.5293 79.1938 14.248L79.0356 14.2129C78.4848 14.1074 77.9165 14.0547 77.3305 14.0547C76.7446 14.0547 76.1821 14.1016 75.643 14.1953L75.4672 14.248C73.5805 14.623 72.104 15.543 71.0375 17.0078C69.9711 18.4727 69.4379 20.3125 69.4379 22.5273C69.4379 24.7305 69.9653 26.5645 71.02 28.0293C72.0747 29.4941 73.5395 30.4199 75.4145 30.8066L75.5903 30.8418ZM91.8973 22.1055C91.9559 20.418 92.3602 19.123 93.1102 18.2207C93.8602 17.3184 94.9149 16.8672 96.2743 16.8672C97.6805 16.8672 98.7586 17.3535 99.5086 18.3262C100.27 19.3105 100.651 20.7109 100.651 22.5273V31H103.446V22.5273C103.446 20.6992 103.106 19.1113 102.427 17.7637C101.735 16.416 100.768 15.4258 99.5262 14.793C98.5536 14.3125 97.4696 14.0723 96.2743 14.0723C95.0672 14.0723 93.9833 14.3125 93.0223 14.793C92.6122 15.0156 92.2372 15.2969 91.8973 15.6367V14.0723H89.0848V31H91.8973V22.1055ZM118.575 25.9727C117.743 27.4492 116.308 28.1875 114.269 28.1875C112.628 28.1875 111.368 27.7012 110.49 26.7285C109.622 25.7559 109.189 24.3555 109.189 22.5273C109.189 20.6992 109.622 19.2988 110.49 18.3262C111.368 17.3535 112.628 16.8672 114.269 16.8672C116.296 16.8672 117.726 17.5938 118.558 19.0469L121.107 17.8691C120.462 16.6504 119.548 15.7129 118.365 15.0566C117.169 14.3887 115.804 14.0547 114.269 14.0547C111.866 14.0547 109.95 14.8223 108.521 16.3574C107.091 17.9043 106.376 19.9609 106.376 22.5273C106.376 25.1055 107.091 27.1621 108.521 28.6973C109.95 30.2324 111.866 31 114.269 31C115.816 31 117.187 30.666 118.382 29.998C119.577 29.3301 120.497 28.3809 121.142 27.1504L118.575 25.9727ZM125.882 22.1055C125.953 20.5 126.386 19.252 127.183 18.3613C127.98 17.4707 129.093 16.9844 130.523 16.9023V14.0898C130.078 14.1133 129.65 14.1602 129.24 14.2305L129.047 14.2656C127.746 14.5703 126.691 15.1973 125.882 16.1465V14.0898H123.07V31H125.882V22.1055Z" fill="#10152F"/>
</svg>
