<svg width="98" height="18" viewBox="0 0 98 18" fill="none" xmlns="http://www.w3.org/2000/svg">
<path fill-rule="evenodd" clip-rule="evenodd" d="M16.4624 7.25355C16.3724 6.96855 16.1099 6.76605 15.8099 6.73605L11.4074 6.36105L9.68992 2.28855C9.56992 2.01105 9.29992 1.83105 8.99992 1.83105C8.69992 1.83105 8.42992 2.01105 8.30992 2.28855L6.59245 6.36105L2.18995 6.73605C1.88995 6.75855 1.63495 6.96105 1.53745 7.25355C1.44745 7.53855 1.52995 7.85355 1.76245 8.04855L5.09995 10.9435L4.10245 15.2485C4.03495 15.541 4.14745 15.8485 4.39495 16.0285C4.64245 16.2085 4.96495 16.216 5.21995 16.066L8.99992 13.7785L12.7874 16.0585C12.9074 16.1335 13.0424 16.1635 13.1774 16.1635C13.3349 16.1635 13.4849 16.1185 13.6199 16.021C13.8674 15.841 13.9799 15.541 13.9124 15.241L12.9149 10.936L16.2524 8.04105C16.4699 7.85355 16.5599 7.53855 16.4624 7.25355Z" fill="#51BAF7"/>
<path fill-rule="evenodd" clip-rule="evenodd" d="M36.4624 7.25355C36.3724 6.96855 36.1099 6.76605 35.8099 6.73605L31.4074 6.36105L29.6899 2.28855C29.5699 2.01105 29.2999 1.83105 28.9999 1.83105C28.6999 1.83105 28.4299 2.01105 28.3099 2.28855L26.5924 6.36105L22.1899 6.73605C21.8899 6.75855 21.6349 6.96105 21.5374 7.25355C21.4474 7.53855 21.5299 7.85355 21.7624 8.04855L25.0999 10.9435L24.1024 15.2485C24.0349 15.541 24.1474 15.8485 24.3949 16.0285C24.6424 16.2085 24.9649 16.216 25.2199 16.066L28.9999 13.7785L32.7874 16.0585C32.9074 16.1335 33.0424 16.1635 33.1774 16.1635C33.3349 16.1635 33.4849 16.1185 33.6199 16.021C33.8674 15.841 33.9799 15.541 33.9124 15.241L32.9149 10.936L36.2524 8.04105C36.4699 7.85355 36.5599 7.53855 36.4624 7.25355Z" fill="#51BAF7"/>
<path fill-rule="evenodd" clip-rule="evenodd" d="M56.4624 7.25355C56.3724 6.96855 56.1099 6.76605 55.8099 6.73605L51.4074 6.36105L49.6899 2.28855C49.5699 2.01105 49.2999 1.83105 48.9999 1.83105C48.6999 1.83105 48.4299 2.01105 48.3099 2.28855L46.5924 6.36105L42.1899 6.73605C41.8899 6.75855 41.6349 6.96105 41.5374 7.25355C41.4474 7.53855 41.5299 7.85355 41.7624 8.04855L45.0999 10.9435L44.1024 15.2485C44.0349 15.541 44.1474 15.8485 44.3949 16.0285C44.6424 16.2085 44.9649 16.216 45.2199 16.066L48.9999 13.7785L52.7874 16.0585C52.9074 16.1335 53.0424 16.1635 53.1774 16.1635C53.3349 16.1635 53.4849 16.1185 53.6199 16.021C53.8674 15.841 53.9799 15.541 53.9124 15.241L52.9149 10.936L56.2524 8.04105C56.4699 7.85355 56.5599 7.53855 56.4624 7.25355Z" fill="#51BAF7"/>
<path fill-rule="evenodd" clip-rule="evenodd" d="M76.4624 7.25355C76.3724 6.96855 76.1099 6.76605 75.8099 6.73605L71.4074 6.36105L69.6899 2.28855C69.5699 2.01105 69.2999 1.83105 68.9999 1.83105C68.6999 1.83105 68.4299 2.01105 68.3099 2.28855L66.5924 6.36105L62.1899 6.73605C61.8899 6.75855 61.6349 6.96105 61.5374 7.25355C61.4474 7.53855 61.5299 7.85355 61.7624 8.04855L65.0999 10.9435L64.1024 15.2485C64.0349 15.541 64.1474 15.8485 64.3949 16.0285C64.6424 16.2085 64.9649 16.216 65.2199 16.066L68.9999 13.7785L72.7874 16.0585C72.9074 16.1335 73.0424 16.1635 73.1774 16.1635C73.3349 16.1635 73.4849 16.1185 73.6199 16.021C73.8674 15.841 73.9799 15.541 73.9124 15.241L72.9149 10.936L76.2524 8.04105C76.4699 7.85355 76.5599 7.53855 76.4624 7.25355Z" fill="#51BAF7"/>
<path fill-rule="evenodd" clip-rule="evenodd" d="M96.4624 7.25355C96.3724 6.96855 96.1099 6.76605 95.8099 6.73605L91.4074 6.36105L89.6899 2.28855C89.5699 2.01105 89.2999 1.83105 88.9999 1.83105C88.6999 1.83105 88.4299 2.01105 88.3099 2.28855L86.5925 6.36105L82.19 6.73605C81.89 6.75855 81.635 6.96105 81.5375 7.25355C81.4475 7.53855 81.53 7.85355 81.7625 8.04855L85.1 10.9435L84.1025 15.2485C84.035 15.541 84.1475 15.8485 84.395 16.0285C84.6425 16.2085 84.965 16.216 85.22 16.066L88.9999 13.7785L92.7874 16.0585C92.9074 16.1335 93.0424 16.1635 93.1774 16.1635C93.3349 16.1635 93.4849 16.1185 93.6199 16.021C93.8674 15.841 93.9799 15.541 93.9124 15.241L92.9149 10.936L96.2524 8.04105C96.4699 7.85355 96.5599 7.53855 96.4624 7.25355Z" fill="#51BAF7"/>
</svg>
